<mxfile host="app.diagrams.net" modified="2024-07-11T07:52:56.206Z" agent="Mozilla/5.0 (X11; Linux x86_64) AppleWebKit/537.36 (KHTML, like Gecko) Chrome/126.0.0.0 Safari/537.36" etag="8CsVcf3Rul7lHgrjCQfB" version="24.6.4" type="github">
  <diagram name="Page-1" id="gNcBQG6dhofmkJlkhqX6">
    <mxGraphModel dx="1343" dy="793" grid="1" gridSize="10" guides="1" tooltips="1" connect="1" arrows="1" fold="1" page="1" pageScale="1" pageWidth="827" pageHeight="1169" math="0" shadow="0">
      <root>
        <mxCell id="0" />
        <mxCell id="1" parent="0" />
        <mxCell id="2" value="Application" style="whiteSpace=wrap;strokeWidth=2;verticalAlign=top;" parent="1" vertex="1">
          <mxGeometry x="30" y="179" width="530" height="82" as="geometry" />
        </mxCell>
        <mxCell id="3" value="Vegetable Application" style="whiteSpace=wrap;strokeWidth=2;" parent="1" vertex="1">
          <mxGeometry x="71.5" y="204" width="168" height="32" as="geometry" />
        </mxCell>
        <mxCell id="4" value="Vendors" style="whiteSpace=wrap;strokeWidth=2;verticalAlign=top;" parent="1" vertex="1">
          <mxGeometry x="57" y="328" width="407" height="82" as="geometry" />
        </mxCell>
        <mxCell id="5" value="Vendor 1" style="whiteSpace=wrap;strokeWidth=2;" parent="1" vertex="1">
          <mxGeometry x="71.5" y="353" width="79" height="32" as="geometry" />
        </mxCell>
        <mxCell id="6" value="Vendor 2" style="whiteSpace=wrap;strokeWidth=2;" parent="1" vertex="1">
          <mxGeometry x="193.5" y="360" width="79" height="32" as="geometry" />
        </mxCell>
        <mxCell id="7" value="Vendor 3" style="whiteSpace=wrap;strokeWidth=2;" parent="1" vertex="1">
          <mxGeometry x="360" y="353" width="79" height="32" as="geometry" />
        </mxCell>
        <mxCell id="8" value="Users" style="whiteSpace=wrap;strokeWidth=2;verticalAlign=top;" parent="1" vertex="1">
          <mxGeometry x="57" y="20" width="473" height="112" as="geometry" />
        </mxCell>
        <mxCell id="9" value="User 1" style="ellipse;aspect=fixed;strokeWidth=2;whiteSpace=wrap;" parent="1" vertex="1">
          <mxGeometry x="110" y="45" width="62" height="62" as="geometry" />
        </mxCell>
        <mxCell id="10" value="User 2" style="ellipse;aspect=fixed;strokeWidth=2;whiteSpace=wrap;" parent="1" vertex="1">
          <mxGeometry x="264" y="45" width="62" height="62" as="geometry" />
        </mxCell>
        <mxCell id="11" value="User 3" style="ellipse;aspect=fixed;strokeWidth=2;whiteSpace=wrap;" parent="1" vertex="1">
          <mxGeometry x="420" y="30" width="62" height="62" as="geometry" />
        </mxCell>
        <mxCell id="12" value="uses" style="curved=1;startArrow=none;endArrow=block;exitX=0.5;exitY=1;entryX=0.26;entryY=0.01;" parent="1" source="9" target="3" edge="1">
          <mxGeometry relative="1" as="geometry">
            <Array as="points" />
          </mxGeometry>
        </mxCell>
        <mxCell id="13" value="uses" style="curved=1;startArrow=none;endArrow=block;exitX=0.5;exitY=1;entryX=0.52;entryY=0.01;" parent="1" source="10" target="3" edge="1">
          <mxGeometry relative="1" as="geometry">
            <Array as="points" />
          </mxGeometry>
        </mxCell>
        <mxCell id="14" value="uses" style="curved=1;startArrow=none;endArrow=block;exitX=0.51;exitY=1;entryX=0.79;entryY=0.01;" parent="1" source="11" target="3" edge="1">
          <mxGeometry relative="1" as="geometry">
            <Array as="points" />
          </mxGeometry>
        </mxCell>
        <mxCell id="15" value="integrates with" style="curved=1;startArrow=none;endArrow=block;exitX=0.2;exitY=1.01;entryX=0.5;entryY=0.01;" parent="1" source="3" target="5" edge="1">
          <mxGeometry relative="1" as="geometry">
            <Array as="points" />
          </mxGeometry>
        </mxCell>
        <mxCell id="16" value="integrates with" style="curved=1;startArrow=none;endArrow=block;exitX=0.5;exitY=1.01;entryX=0.5;entryY=0.01;" parent="1" source="3" target="6" edge="1">
          <mxGeometry relative="1" as="geometry">
            <Array as="points" />
          </mxGeometry>
        </mxCell>
        <mxCell id="17" value="integrates with" style="curved=1;startArrow=none;endArrow=block;exitX=0.8;exitY=1.01;entryX=0.5;entryY=0.01;" parent="1" source="3" target="7" edge="1">
          <mxGeometry relative="1" as="geometry">
            <Array as="points" />
          </mxGeometry>
        </mxCell>
        <mxCell id="p0taf0wyZjguCiG1wPpg-17" value="vegetable DBMS" style="shape=cylinder;whiteSpace=wrap;html=1;boundedLbl=1;backgroundOutline=1;" vertex="1" parent="1">
          <mxGeometry x="470" y="192.5" width="60" height="55" as="geometry" />
        </mxCell>
        <mxCell id="p0taf0wyZjguCiG1wPpg-19" value="grant access" style="curved=1;startArrow=none;endArrow=block;exitX=0;exitY=0.3;exitDx=0;exitDy=0;" edge="1" parent="1" source="p0taf0wyZjguCiG1wPpg-17" target="3">
          <mxGeometry relative="1" as="geometry">
            <Array as="points" />
            <mxPoint x="355" y="112" as="sourcePoint" />
            <mxPoint x="330" y="210" as="targetPoint" />
          </mxGeometry>
        </mxCell>
        <mxCell id="p0taf0wyZjguCiG1wPpg-20" value="request access" style="curved=1;startArrow=none;endArrow=block;entryX=0;entryY=0.7;entryDx=0;entryDy=0;" edge="1" parent="1" source="3" target="p0taf0wyZjguCiG1wPpg-17">
          <mxGeometry relative="1" as="geometry">
            <Array as="points" />
            <mxPoint x="320" y="231" as="sourcePoint" />
            <mxPoint x="207" y="214" as="targetPoint" />
          </mxGeometry>
        </mxCell>
      </root>
    </mxGraphModel>
  </diagram>
</mxfile>
